<svg xmlns="http://www.w3.org/2000/svg" viewBox="27 33 46 34"><path d="M46.117,65.404c0.68,0.537,1.607,0.641,2.387,0.264c0.781-0.379,1.277-1.17,1.277-2.035V36.368   c0-0.866-0.496-1.655-1.277-2.035c-0.313-0.149-0.648-0.226-0.984-0.226c-0.5,0-0.994,0.166-1.402,0.488L28.891,48.227   c-0.541,0.428-0.858,1.08-0.858,1.773c0,0.689,0.317,1.344,0.858,1.771L46.117,65.404z"/><path d="M70.691,34.334c-0.314-0.15-0.648-0.227-0.984-0.227c-0.5,0-0.996,0.166-1.402,0.488L51.076,48.227   c-0.541,0.428-0.857,1.08-0.857,1.773c0,0.689,0.316,1.344,0.857,1.771l17.229,13.631c0.68,0.537,1.605,0.641,2.387,0.264   c0.781-0.379,1.275-1.168,1.275-2.035V36.367C71.967,35.502,71.471,34.713,70.691,34.334z"/></svg>