<svg xmlns="http://www.w3.org/2000/svg" viewBox="27 33 46 34"><path d="M53.883,34.596c-0.68-0.537-1.605-0.641-2.387-0.264c-0.781,0.379-1.275,1.17-1.275,2.035v27.264   c0,0.867,0.494,1.656,1.275,2.035c0.313,0.15,0.65,0.227,0.984,0.227c0.5,0,0.996-0.166,1.402-0.488l17.227-13.631   c0.543-0.43,0.857-1.082,0.857-1.773s-0.314-1.346-0.857-1.773L53.883,34.596z"/><path d="M31.697,34.596c-0.68-0.537-1.607-0.641-2.389-0.264c-0.779,0.379-1.275,1.17-1.275,2.035v27.264   c0,0.867,0.496,1.656,1.275,2.035c0.313,0.15,0.648,0.227,0.984,0.227c0.498,0,0.996-0.166,1.402-0.488l17.227-13.631   c0.543-0.43,0.859-1.082,0.859-1.773s-0.316-1.346-0.859-1.773L31.697,34.596z"/></svg>