<svg xmlns="http://www.w3.org/2000/svg" viewBox="33 33 34 34"><path d="M64.429,33.904c-0.375,0-0.75,0.127-1.053,0.375l-17.723,14.43C45.265,49.023,45.038,49.5,45.038,50   c0,0.502,0.227,0.977,0.615,1.293l17.723,14.428c0.498,0.406,1.188,0.488,1.77,0.213c0.58-0.275,0.949-0.863,0.949-1.504V35.572   c0-0.643-0.369-1.229-0.949-1.505C64.915,33.959,64.671,33.904,64.429,33.904z"/><path d="M35.571,33.904c-0.92,0-1.666,0.747-1.666,1.667v28.856c0,0.92,0.746,1.668,1.666,1.668h7.322   c0.92,0,1.666-0.748,1.666-1.668V35.571c0-0.92-0.746-1.667-1.666-1.667H35.571z"/></svg>