<svg xmlns="http://www.w3.org/2000/svg" viewBox="33 33 34 34"><path d="M57.106,33.904c-0.92,0-1.666,0.747-1.666,1.667v28.856c0,0.92,0.746,1.668,1.666,1.668h7.322   c0.918,0,1.666-0.748,1.666-1.668V35.571c0-0.92-0.748-1.667-1.666-1.667H57.106z"/><path d="M34.856,34.066c-0.582,0.275-0.951,0.863-0.951,1.505v28.856c0,0.643,0.369,1.23,0.951,1.506   c0.227,0.107,0.471,0.162,0.715,0.162c0.377,0,0.748-0.127,1.053-0.375l17.723-14.43c0.391-0.316,0.615-0.791,0.615-1.291   c0-0.502-0.227-0.977-0.615-1.293L36.624,34.278C36.124,33.873,35.435,33.791,34.856,34.066z"/></svg>